<svg xmlns="http://www.w3.org/2000/svg" width="980" height="520" viewBox="0 0 980 520"><rect width="100%" height="100%" fill="#fff"/>  <defs>
    <marker id="arrow" viewBox="0 0 10 10" refX="9" refY="5" markerWidth="8" markerHeight="8" orient="auto">
      <path d="M 0 1.5 L 9 5 L 0 8.5 z" fill="#111"/>
    </marker>
  </defs>
<rect x="40.0" y="210.0" width="140.0" height="90.0" fill="#fff" stroke="#111" stroke-width="2"/><text x="110.0" y="260.0" text-anchor="middle" font-family="Arial, Helvetica, sans-serif" font-size="13" font-weight="700" fill="#111">Shop Owner</text>
<rect x="330.0" y="36.0" width="210.0" height="86.0" rx="14" ry="14" fill="#fff" stroke="#111" stroke-width="1.8"/><line x1="330.0" y1="62.0" x2="540.0" y2="62.0" stroke="#111" stroke-width="1.5"/><text x="435.0" y="54.0" text-anchor="middle" font-family="Arial, Helvetica, sans-serif" font-size="13" font-weight="700" fill="#111">3.1</text><text x="435.0" y="89.5" text-anchor="middle" font-family="Arial, Helvetica, sans-serif" font-size="13" fill="#111">Manage Items</text><text x="435.0" y="104.5" text-anchor="middle" font-family="Arial, Helvetica, sans-serif" font-size="13" fill="#111">&amp; Staff</text>
<rect x="330.0" y="200.0" width="210.0" height="86.0" rx="14" ry="14" fill="#fff" stroke="#111" stroke-width="1.8"/><line x1="330.0" y1="226.0" x2="540.0" y2="226.0" stroke="#111" stroke-width="1.5"/><text x="435.0" y="218.0" text-anchor="middle" font-family="Arial, Helvetica, sans-serif" font-size="13" font-weight="700" fill="#111">3.2</text><text x="435.0" y="253.5" text-anchor="middle" font-family="Arial, Helvetica, sans-serif" font-size="13" fill="#111">Configure Store</text><text x="435.0" y="268.5" text-anchor="middle" font-family="Arial, Helvetica, sans-serif" font-size="13" fill="#111">Settings</text>
<rect x="400.0" y="380.0" width="210.0" height="86.0" rx="14" ry="14" fill="#fff" stroke="#111" stroke-width="1.8"/><line x1="400.0" y1="406.0" x2="610.0" y2="406.0" stroke="#111" stroke-width="1.5"/><text x="505.0" y="398.0" text-anchor="middle" font-family="Arial, Helvetica, sans-serif" font-size="13" font-weight="700" fill="#111">3.3</text><text x="505.0" y="433.5" text-anchor="middle" font-family="Arial, Helvetica, sans-serif" font-size="13" fill="#111">Generate Shop</text><text x="505.0" y="448.5" text-anchor="middle" font-family="Arial, Helvetica, sans-serif" font-size="13" fill="#111">Reports</text>
<path d="M 700.0 208.0 H 950.0 V 264.0 H 700.0" fill="none" stroke="#111" stroke-width="1.8"/><line x1="736.0" y1="208.0" x2="736.0" y2="264.0" stroke="#111" stroke-width="1.8"/><text x="718.0" y="241.0" text-anchor="middle" font-family="Arial, Helvetica, sans-serif" font-size="13" font-weight="700" fill="#111">D2</text><text x="843.0" y="241.0" text-anchor="middle" font-family="Arial, Helvetica, sans-serif" font-size="13" fill="#111">Tenant Shop Database</text>
<path d="M 110.0 210.0L 110.0 79.0L 330.0 79.0" fill="none" stroke="#111" stroke-width="1.5" marker-end="url(#arrow)"/><text x="300.0" y="67.0" text-anchor="middle" font-family="Arial, Helvetica, sans-serif" font-size="12" fill="#222">Items, staff</text>
<path d="M 180.0 255.0L 330.0 255.0" fill="none" stroke="#111" stroke-width="1.5" marker-end="url(#arrow)"/><text x="255.0" y="243.0" text-anchor="middle" font-family="Arial, Helvetica, sans-serif" font-size="12" fill="#222">Store settings</text>
<path d="M 540.0 58.0L 830.0 58.0L 830.0 208.0" fill="none" stroke="#111" stroke-width="1.5" marker-end="url(#arrow)"/><text x="850.0" y="121.0" text-anchor="middle" font-family="Arial, Helvetica, sans-serif" font-size="12" fill="#222">Items &amp; staff records</text>
<path d="M 700.0 220.0L 620.0 220.0L 620.0 100.0L 540.0 100.0" fill="none" stroke="#111" stroke-width="1.5" marker-end="url(#arrow)"/><text x="620.0" y="148.0" text-anchor="middle" font-family="Arial, Helvetica, sans-serif" font-size="12" fill="#222">Shop records</text>
<path d="M 540.0 228.0L 700.0 228.0" fill="none" stroke="#111" stroke-width="1.5" marker-end="url(#arrow)"/><text x="620.0" y="216.0" text-anchor="middle" font-family="Arial, Helvetica, sans-serif" font-size="12" fill="#222">Shop config</text>
<path d="M 700.0 250.0L 540.0 250.0" fill="none" stroke="#111" stroke-width="1.5" marker-end="url(#arrow)"/><text x="620.0" y="266.0" text-anchor="middle" font-family="Arial, Helvetica, sans-serif" font-size="12" fill="#222">Shop records</text>
<path d="M 830.0 264.0L 830.0 423.0L 610.0 423.0" fill="none" stroke="#111" stroke-width="1.5" marker-end="url(#arrow)"/><text x="720.0" y="411.0" text-anchor="middle" font-family="Arial, Helvetica, sans-serif" font-size="12" fill="#222">Shop records</text>
<path d="M 400.0 423.0L 40.0 423.0L 40.0 300.0" fill="none" stroke="#111" stroke-width="1.5" marker-end="url(#arrow)"/><text x="120.0" y="349.5" text-anchor="middle" font-family="Arial, Helvetica, sans-serif" font-size="12" fill="#222">Shop reports</text></svg>